<svg xmlns="http://www.w3.org/2000/svg" width="80" height="80"><defs><clipPath id="clip-path"><path id="Rectangle_5654" d="M0 0h80v80H0z" data-name="Rectangle 5654" transform="translate(745 2095)" stroke="#707070" fill="#fff"/></clipPath><style>.cls-3{fill:#ffde01}.cls-5{opacity:.6}.cls-8{fill:#343434}</style></defs><g id="Mask_Group_533" data-name="Mask Group 533" transform="translate(-745 -2095)" clip-path="url(#clip-path)"><g id="Layer_2" data-name="Layer 2" transform="translate(745 2095)"><g id="Layer_1" data-name="Layer 1"><g id="Layer_1-2" data-name="Layer 1-2"><rect id="Rectangle_5669" width="80" height="80" class="cls-3" data-name="Rectangle 5669" rx="4.12"/><rect id="Rectangle_5670" width="72.76" height="72.76" data-name="Rectangle 5670" rx="3.75" transform="translate(3.62 3.62)" fill="#fff"/><g id="Group_3677" class="cls-5" data-name="Group 3677"><path id="Path_4658" d="M58.29 76.48h8.8a11.46 11.46 0 019.39-10.78v-8.87a20.23 20.23 0 00-18.19 19.65z" data-name="Path 4658" fill="#00b4ad"/></g><g id="Group_3678" class="cls-5" data-name="Group 3678"><path id="Path_4659" d="M17.77 65.12l-5.78 3.34 5.78 3.34z" data-name="Path 4659" fill="#fbb516"/></g><g id="Group_3679" class="cls-5" data-name="Group 3679"><path id="Path_4660" d="M41.63 7.42l-5.78 3.34 5.78 3.34z" class="cls-3" data-name="Path 4660"/></g><path id="Path_4661" d="M65.91 24.55H31.49a.89.89 0 01-.75-.42l-.95-1.54a1.31 1.31 0 00-1.11-.59h-1.27a.87.87 0 01-.89-.87v-1.46a1.75 1.75 0 011.75-1.75h37.64a1.76 1.76 0 011.75 1.75v3.13a1.77 1.77 0 01-1.75 1.75zM32 22.79h33.9v-3.11H28.29v.54h.41a3.07 3.07 0 012.59 1.44z" class="cls-8" data-name="Path 4661"/><path id="Path_4662" d="M61.05 61.9H32.78a.88.88 0 010-1.76h28.27a.51.51 0 00.5-.47L63 34.06a1.341 1.341 0 010-.2l.35-9.28H31.51a.88.88 0 11-.1-1.75h32.83a.87.87 0 01.88.87l-.39 10a.5.5 0 010 .17V34l-1.42 25.78a2.24 2.24 0 01-2.26 2.12z" class="cls-8" data-name="Path 4662"/><path id="Path_4663" d="M51.38 44.16a.88.88 0 01-.88-.89.87.87 0 01.7-.85 23 23 0 0012.25-7.11 19.58 19.58 0 005.21-13 .881.881 0 011.76-.1v.1a21.33 21.33 0 01-5.66 14.19 24.67 24.67 0 01-13.2 7.66z" class="cls-8" data-name="Path 4663"/><path id="Path_4664" d="M42.54 44.16h-.18A22.37 22.37 0 0132 38.86a.9.9 0 011.22-1.31 20.56 20.56 0 009.55 4.87.86.86 0 01.69 1 .89.89 0 01-.92.74z" class="cls-8" data-name="Path 4664"/><path id="Path_4665" d="M69.33 23.17h-2.56a.88.88 0 010-1.76h2.56a.87.87 0 01.88.88.88.88 0 01-.88.88z" class="cls-8" data-name="Path 4665"/><path id="Path_4666" d="M49.67 46h-5.43a2.57 2.57 0 01-2.58-2.58 2.57 2.57 0 012.58-2.58h5.43a2.59 2.59 0 012.59 2.58A2.59 2.59 0 0149.67 46zm-5.43-3.44a.83.83 0 00-.83.83.83.83 0 00.83.83h5.43a.83.83 0 00.83-.83.83.83 0 00-.83-.83z" class="cls-8" data-name="Path 4666"/><path id="Path_4667" d="M17.51 62.08h-.67a2.28 2.28 0 01-1.62-.76 2.44 2.44 0 01-.55-1.84c.09-1 .17-2 .26-3 .24-2.92.49-5.93.79-8.9a41.73 41.73 0 01.78-4.42 7 7 0 012.36-3.53c1-.95 1.89-1.68 2.82-2.46.47-.39.94-.78 1.45-1.23l.45-.36c.69-.56 1.83-1.49 1.94-2.21a.88.88 0 011.75.19.13.13 0 000 .06c-.21 1.4-1.63 2.56-2.57 3.32-.15.12-.3.23-.41.33-.52.45-1 .85-1.47 1.24-.92.76-1.78 1.48-2.74 2.39a5.35 5.35 0 00-1.85 2.63 37.65 37.65 0 00-.75 4.22c-.29 2.95-.55 6-.79 8.86-.09 1-.17 2-.26 3a.71.71 0 00.13.53.55.55 0 00.39.16h14.96a.88.88 0 00.59-.15 1 1 0 00.16-.66v-1.36l-.13-4.39c-.11-3.59-.22-7.29-.37-10.93a53 53 0 00-.57-5.62c-.13-.91-.34-1.79-.55-2.73-.12-.51-.24-1-.35-1.55a1.09 1.09 0 010-.26.88.88 0 111.75-.09c.11.5.23 1 .34 1.5.22.93.44 1.89.59 2.87.29 1.93.49 3.86.59 5.81.15 3.65.27 7.36.37 11l.13 4.39v1.43a2.58 2.58 0 01-.67 1.91 2.53 2.53 0 01-1.83.66H17.51z" class="cls-8" data-name="Path 4667"/><path id="Path_4668" d="M26.38 34.33a.87.87 0 01-.49-.14.93.93 0 01-.39-.59l-.83-5c-.16-.22-.92-.94-4.28-1.72-2-.47-3.93-.72-3.95-.72a.88.88 0 01-.77-.87V21.1a.88.88 0 01.88-.88h10.86a.89.89 0 01.83.93.88.88 0 01-.83.83h-10v2.58c.77.11 2 .33 3.35.63 3.09.72 4.82 1.54 5.43 2.58l.05.08a.93.93 0 01.12.33l.71 4.27 3.22-.54-.86-5.15a.89.89 0 01.71-1h1.57l-1-1.56a.89.89 0 011.49-.95l1.8 2.86a.87.87 0 01-.27 1.21.86.86 0 01-.46.14h-2l.83 5a.89.89 0 01-.73 1l-4.93.83z" class="cls-8" data-name="Path 4668"/><path id="Path_4669" d="M20.34 31.4a3.79 3.79 0 01-2-.59.88.88 0 01-.22-1.23.89.89 0 01.45-.34c1.54-.48 1.87-3.06 1.88-3.09a.87.87 0 011-.75.88.88 0 01.76.94 7.38 7.38 0 01-1.23 3.22A4.92 4.92 0 0023.55 27a.89.89 0 011.59.78v.07c-1.07 2-2.37 3.14-3.85 3.49a4 4 0 01-.95.06z" class="cls-8" data-name="Path 4669"/><g id="Group_3680" class="cls-5" data-name="Group 3680"><circle id="Ellipse_3080" cx="4.2" cy="4.2" r="4.2" data-name="Ellipse 3080" transform="translate(8.03 7.24)" fill="#2dabe2"/></g></g></g></g></g></svg>