<svg xmlns="http://www.w3.org/2000/svg" width="80" height="80"><defs><clipPath id="clip-path"><path id="Rectangle_5654" d="M0 0h80v80H0z" data-name="Rectangle 5654" transform="translate(745 2095)" stroke="#707070" fill="#fff"/></clipPath><style>.cls-3{fill:#ffde01}.cls-5{opacity:.6}.cls-8{fill:#343434}</style></defs><g id="Mask_Group_537" data-name="Mask Group 537" transform="translate(-745 -2095)" clip-path="url(#clip-path)"><g id="Layer_2" data-name="Layer 2" transform="translate(745 2095)"><g id="Layer_1" data-name="Layer 1"><g id="Layer_1-2" data-name="Layer 1-2"><rect id="Rectangle_5677" width="80" height="80" class="cls-3" data-name="Rectangle 5677" rx="4.12"/><rect id="Rectangle_5678" width="72.76" height="72.76" data-name="Rectangle 5678" rx="3.75" transform="translate(3.62 3.62)" fill="#fff"/><g id="Group_3693" class="cls-5" data-name="Group 3693"><path id="Path_4695" d="M76.39 21.77V13a11.44 11.44 0 01-10.77-9.41h-8.88a20.23 20.23 0 0019.65 18.18z" data-name="Path 4695" fill="#00b4ad"/></g><g id="Group_3694" class="cls-5" data-name="Group 3694"><path id="Path_4696" d="M68.92 66l-5.78 3.34 5.78 3.34z" data-name="Path 4696" fill="#fbb516"/></g><g id="Group_3695" class="cls-5" data-name="Group 3695"><path id="Path_4697" d="M41.63 7.42l-5.78 3.34 5.78 3.34z" class="cls-3" data-name="Path 4697"/></g><path id="Path_4698" d="M40.51 20.47a15.74 15.74 0 013.92.52c3 .77 5.93 1.43 8.91 2.1.47.11.59.3.58.76v8.04c-1.53.2-3 .43-4.44.58h-.55a6.32 6.32 0 01-3.19-.9C44.36 30.81 43 30 41.6 29.24a1.78 1.78 0 00-.84-.22h-4.83c-1.43 0-1.6-.87-1.43-1.91a1 1 0 01.9-.83h7.78c.42 0 .56-.12.56-.55 0-1.34 0-1.34-1.34-1.34h-6.59a3.47 3.47 0 00-2.24.8 3.34 3.34 0 01-.81.38l-6.82 2.74a2 2 0 01-.72.16 1.12 1.12 0 01-.7-.24 1.18 1.18 0 01-.22-1.64 1.28 1.28 0 01.49-.37c1.33-.62 2.68-1.2 4-1.8 1.8-.8 3.62-1.56 5.39-2.42a14.23 14.23 0 016.31-1.48m0-1.76a16.21 16.21 0 00-7.08 1.65c-1.19.58-2.44 1.13-3.65 1.66l-1.69.74-1.22.55c-.92.42-1.88.83-2.82 1.27A3 3 0 0022.31 27a2.93 2.93 0 002.62 3.22h.29a3.63 3.63 0 001.38-.29l3.4-1.38 2.73-1.11a4 4 0 000 .69 2.94 2.94 0 00.67 1.59 3.15 3.15 0 002.56 1h4.8c1 .57 2.09 1.17 3.11 1.76l1 .57a8.06 8.06 0 004.06 1.13 5.781 5.781 0 00.72 0c1.05-.1 2.11-.25 3.13-.39l1.38-.19a1.76 1.76 0 001.53-1.75v-8a2.33 2.33 0 00-1.95-2.49l-1.05-.24c-2.57-.57-5.23-1.17-7.81-1.84a17.33 17.33 0 00-4.36-.57z" class="cls-8" data-name="Path 4698"/><path id="Path_4699" d="M60.37 20.68V33.6H55.8V20.68h4.56m0-1.76H55.8a1.76 1.76 0 00-1.8 1.76V33.6a1.76 1.76 0 001.76 1.76h4.56a1.76 1.76 0 001.76-1.76V20.68a1.76 1.76 0 00-1.72-1.76z" class="cls-8" data-name="Path 4699"/><path id="Path_4700" d="M31.05 52.62a5.87 5.87 0 012.27.43 22.431 22.431 0 012.16 1.16c1 .55 2 1.15 3 1.7a1.76 1.76 0 00.81.2h4.85c1 0 1.41.43 1.41 1.35a1.24 1.24 0 01-1.41 1.41h-7.29c-.46 0-.61.15-.59.62 0 1.25 0 1.25 1.23 1.25h6.2a3.81 3.81 0 002.8-.86 2.57 2.57 0 01.69-.28c2.27-.91 4.55-1.83 6.83-2.73a2.22 2.22 0 01.81-.18h.06a1.16 1.16 0 01.37 2.21c-1 .45-1.92.87-2.88 1.3-2.61 1.15-5.2 2.34-7.83 3.46a12.43 12.43 0 01-4.93 1 15.22 15.22 0 01-3.36-.41q-4.89-1.17-9.78-2.3c-.28-.06-.4-.14-.4-.45v-8.06a1.87 1.87 0 010-.25l3.8-.5a6.91 6.91 0 011.13-.08m0-1.77a10.521 10.521 0 00-1.37.1l-2.63.35-1.16.16a1.75 1.75 0 00-1.5 1.45v.1a2 2 0 00-.06.49v8.01a2.14 2.14 0 001.77 2.17c3.22.74 6.51 1.52 9.77 2.29a16 16 0 003.77.45 14.12 14.12 0 005.62-1.14c1.87-.8 3.76-1.66 5.58-2.46l2.27-1 .57-.25 2.34-1a2.93 2.93 0 00-1-5.56h-.14a4 4 0 00-1.45.31l-5.11 2-1 .38v-.2a3 3 0 00-.88-2.27 3.15 3.15 0 00-2.28-.83h-4.79l-1.74-1-1.22-.7-.5-.27a16.069 16.069 0 00-1.84-1 7.66 7.66 0 00-3-.56z" class="cls-8" data-name="Path 4700"/><path id="Path_4701" d="M24.18 51.49V64.4h-4.55V51.49h4.55m0-1.76h-4.55a1.76 1.76 0 00-1.76 1.76V64.4a1.75 1.75 0 001.76 1.76h4.55A1.76 1.76 0 0026 64.4V51.49a1.78 1.78 0 00-1.76-1.77z" class="cls-8" data-name="Path 4701"/><path id="Path_4702" d="M44.34 36.08a3.23 3.23 0 012.43 5.1c-2.15 2.54-4.44 5-6.72 7.5-.8-.87-1.52-1.64-2.21-2.41l-4.18-4.59a3.41 3.41 0 01-1-3.06 3.23 3.23 0 012.92-2.51 1.23 1.23 0 01.27 0 3 3 0 011.58.84 14.74 14.74 0 011.63 2.14c.25.36.47.7.94.7.48 0 .69-.34 1-.7a19.31 19.31 0 011.93-2.4 2.07 2.07 0 011.48-.63m0-1.76a3.83 3.83 0 00-2.71 1.13 15.94 15.94 0 00-1.7 1.96 12.64 12.64 0 00-1.34-1.66 4.74 4.74 0 00-2.62-1.35 3.71 3.71 0 00-.47 0 4.63 4.63 0 00-3 1.2 4.89 4.89 0 00-1.63 2.73 5.09 5.09 0 001.42 4.58c1.2 1.34 2.44 2.69 3.63 4l.55.61L38 49.07l.74.81a1.82 1.82 0 001.3.55 1.75 1.75 0 001.3-.58l2-2.21c1.58-1.73 3.21-3.52 4.75-5.34a4.61 4.61 0 001.07-3.41 5 5 0 00-1.85-3.43 4.81 4.81 0 00-3-1.15z" class="cls-8" data-name="Path 4702"/><g id="Group_3696" class="cls-5" data-name="Group 3696"><circle id="Ellipse_3088" cx="4.2" cy="4.2" r="4.2" data-name="Ellipse 3088" transform="translate(6.75 63.38)" fill="#2dabe2"/></g></g></g></g></g></svg>