<svg xmlns="http://www.w3.org/2000/svg" width="80" height="80"><defs><clipPath id="clip-path"><path id="Rectangle_5654" d="M0 0h80v80H0z" data-name="Rectangle 5654" transform="translate(745 2095)" stroke="#707070" fill="#fff"/></clipPath><style>.cls-3{fill:#fd0}.cls-5{opacity:.6}.cls-9{fill:#343434}.cls-10{fill:none;stroke:#343434;stroke-miterlimit:10;stroke-width:1.5px}</style></defs><g id="Mask_Group_536" data-name="Mask Group 536" transform="translate(-745 -2095)" clip-path="url(#clip-path)"><g id="Layer_2" data-name="Layer 2" transform="translate(745 2095)"><g id="Layer_1" data-name="Layer 1"><rect id="Rectangle_5675" width="80" height="80" class="cls-3" data-name="Rectangle 5675" rx="4.12"/><rect id="Rectangle_5676" width="72.76" height="72.76" data-name="Rectangle 5676" rx="3.75" transform="translate(3.62 3.62)" fill="#fff"/><g id="Group_3689" class="cls-5" data-name="Group 3689"><path id="Path_4688" d="M67 76.48v-.1a11.44 11.44 0 019.37-10.67v-8.88A20.24 20.24 0 0058.2 76.38v.1z" data-name="Path 4688" fill="#00b4ad"/></g><g id="Group_3690" class="cls-5" data-name="Group 3690"><path id="Path_4689" d="M43.89 13.1l5.78-3.34-5.78-3.34z" data-name="Path 4689" fill="#fcb017"/></g><g id="Group_3691" class="cls-5" data-name="Group 3691"><path id="Path_4690" d="M36.51 72.78l5.78-3.34-5.78-3.34z" class="cls-3" data-name="Path 4690"/></g><g id="Group_3692" class="cls-5" data-name="Group 3692"><circle id="Ellipse_3083" cx="4.21" cy="4.21" r="4.21" data-name="Ellipse 3083" transform="translate(7.53 7.2)" fill="#00ace7"/></g><path id="Path_4691" d="M23.57 25.49h-.08a6.3 6.3 0 01-6.18-6.38 6.18 6.18 0 011.89-4.39 6.271 6.271 0 114.37 10.77zm0-10.79a4.54 4.54 0 00-3.15 1.3 4.47 4.47 0 00-1.35 3.14 4.54 4.54 0 004.44 4.6h.06a4.54 4.54 0 004.51-4.48 4.55 4.55 0 00-4.41-4.55z" class="cls-9" data-name="Path 4691"/><path id="Path_4692" d="M60.34 67.06a3.66 3.66 0 01-.57 0 3.31 3.31 0 01-2.7-3V48.4h-.48v15.17a3.22 3.22 0 01-2.37 3.34 3.15 3.15 0 01-2.73-.42A3.2 3.2 0 0150 64.13V31.85a.44.44 0 00-.15-.4c-2.58-2.61-5.19-5.27-7.71-7.84l-.84-.86a3 3 0 01-.67-3.68 2.91 2.91 0 014.34-.9 5.891 5.891 0 01.57.52l.88.89L53.76 27a.23.23 0 00.06.06h5.97c2.49-2.54 5.22-5.31 8.34-8.46a3 3 0 014.18-.25 2.92 2.92 0 011 2.05 2.76 2.76 0 01-.7 2c-.78.85-1.6 1.68-2.39 2.48l-.63.65-.14.13c-1.85 1.9-3.77 3.86-5.67 5.77a.52.52 0 00-.19.44v31.49a4.81 4.81 0 01-.28 1.72 3.2 3.2 0 01-2.97 1.98zM55.7 46.59h2.24a.88.88 0 01.88.88v16.44a1.54 1.54 0 001.24 1.37 1.46 1.46 0 001.62-.85 3.06 3.06 0 00.17-1.08V31.86a2.24 2.24 0 01.7-1.68c1.9-1.91 3.81-3.86 5.66-5.76l.14-.13.64-.66c.78-.79 1.58-1.6 2.33-2.43a1 1 0 00.26-.75 1.21 1.21 0 00-2.17-.65l-8.34 8.45a1.78 1.78 0 01-1.37.58h-5.79a1.89 1.89 0 01-1.42-.59c-2.43-2.48-4.9-5-7.3-7.41l-.88-.89a5.11 5.11 0 00-.42-.39 1.09 1.09 0 00-.92-.2 1.07 1.07 0 00-.76.55c-.2.38-.34.91.37 1.63l.84.85c2.52 2.58 5.12 5.24 7.7 7.84a2.21 2.21 0 01.66 1.64V63.4a5.529 5.529 0 000 .59 1.52 1.52 0 001.88 1.26 1.5 1.5 0 001.14-1.67V47.47a.88.88 0 01.9-.88z" class="cls-9" data-name="Path 4692"/><path id="Path_4693" d="M56.82 25.49h-.08a6.3 6.3 0 01-6.18-6.38 6.18 6.18 0 011.89-4.39 6.286 6.286 0 114.37 10.77zm0-10.79a4.5 4.5 0 00-3.14 1.3 4.44 4.44 0 00-1.36 3.14 4.54 4.54 0 004.44 4.6h.06a4.54 4.54 0 004.51-4.48 4.54 4.54 0 00-4.4-4.55z" class="cls-9" data-name="Path 4693"/><path id="Path_4694" d="M27.09 67.06a3.66 3.66 0 01-.57 0 3.31 3.31 0 01-2.7-3V48.35h-.47v6.72a4.1 4.1 0 01-5.8 3.72l-5.39-2.46a3.177 3.177 0 012.64-5.78l2 .91V31.85a.44.44 0 00-.16-.4l-7.85-8-.69-.71a3 3 0 01-.67-3.68 2.91 2.91 0 014.34-.9 5.89 5.89 0 01.57.52l1 1.06c2.34 2.37 4.76 4.82 7.13 7.24l.07.06h5.96c2.53-2.58 5.26-5.35 8.34-8.46a3 3 0 014.18-.25 2.92 2.92 0 011 2.05 2.77 2.77 0 01-.71 2c-.77.84-1.58 1.66-2.36 2.46-.22.22-.44.44-.65.67l-.19.19c-1.84 1.87-3.74 3.82-5.63 5.71a.54.54 0 00-.18.44v31.49a4.81 4.81 0 01-.29 1.72 3.19 3.19 0 01-2.92 2zm-4.64-20.47h2.23a.87.87 0 01.88.88V63.9a1.55 1.55 0 001.25 1.37 1.46 1.46 0 001.62-.85 3.06 3.06 0 00.17-1.08V31.85a2.24 2.24 0 01.7-1.68c1.88-1.89 3.78-3.83 5.61-5.71l.19-.18.66-.67c.77-.79 1.56-1.6 2.31-2.42a1 1 0 00.25-.75 1.15 1.15 0 00-.39-.82 1.2 1.2 0 00-1.77.17l-8.34 8.45a1.79 1.79 0 01-1.36.58h-5.79a1.87 1.87 0 01-1.42-.6L12.12 21l-1-1.06-.42-.39a1.165 1.165 0 00-1.69.35c-.19.38-.33.9.37 1.63l.7.71c2.57 2.62 5.22 5.33 7.85 8a2.21 2.21 0 01.66 1.64v21a.88.88 0 01-.4.74.91.91 0 01-.85.06L14 52.15a1.42 1.42 0 00-1.91 1.79 1.4 1.4 0 00.74.79l5.4 2.46a2.33 2.33 0 003.3-2.12v-7.6a.88.88 0 01.92-.88z" class="cls-9" data-name="Path 4694"/><circle id="Ellipse_3084" cx="2.32" cy="2.32" r="2.32" class="cls-10" data-name="Ellipse 3084" transform="translate(31.33 7.59)"/><circle id="Ellipse_3085" cx="2.32" cy="2.32" r="2.32" class="cls-10" data-name="Ellipse 3085" transform="translate(66.17 31.48)"/><circle id="Ellipse_3086" cx="2.32" cy="2.32" r="2.32" class="cls-10" data-name="Ellipse 3086" transform="translate(38.63 33.47)"/><circle id="Ellipse_3087" cx="2.32" cy="2.32" r="2.32" class="cls-10" data-name="Ellipse 3087" transform="translate(8.44 31.48)"/></g></g></g></svg>