<svg xmlns="http://www.w3.org/2000/svg" width="80" height="80"><defs><clipPath id="clip-path"><path id="Rectangle_6157" d="M0 0h80v80H0z" data-name="Rectangle 6157" transform="translate(534 456)" stroke="#707070" fill="#fff"/></clipPath><style>.cls-3{fill:#f9de4b}.cls-5{opacity:.6}.cls-9{fill:#343434}</style></defs><g id="Mask_Group_553" data-name="Mask Group 553" transform="translate(-534 -456)" clip-path="url(#clip-path)"><g id="Layer_2" data-name="Layer 2" transform="translate(534 456)"><g id="Layer_1" data-name="Layer 1"><g id="Layer_1-2" data-name="Layer 1-2"><rect id="Rectangle_6163" width="80" height="80" class="cls-3" data-name="Rectangle 6163" rx="4.12"/><rect id="Rectangle_6164" width="72.76" height="72.76" data-name="Rectangle 6164" rx="3.75" transform="translate(3.62 3.62)" fill="#fff"/><g id="Group_3809" class="cls-5" data-name="Group 3809"><path id="Path_4769" d="M67 76.48v-.1a11.43 11.43 0 019.38-10.67v-8.88a20.25 20.25 0 00-18.19 19.55v.1z" data-name="Path 4769" fill="#54b2ac"/></g><g id="Group_3810" class="cls-5" data-name="Group 3810"><path id="Path_4770" d="M54.01 15.17l5.79-3.34-5.79-3.34z" data-name="Path 4770" fill="#f0b744"/></g><g id="Group_3811" class="cls-5" data-name="Group 3811"><path id="Path_4771" d="M36.51 72.77l5.78-3.33-5.78-3.34z" class="cls-3" data-name="Path 4771"/></g><g id="Group_3812" class="cls-5" data-name="Group 3812"><circle id="Ellipse_3093" cx="4.2" cy="4.2" r="4.2" data-name="Ellipse 3093" transform="translate(7.54 7.21)" fill="#59a9dd"/></g></g><path id="Path_4772" d="M56.19 64.12H23.81a.87.87 0 01-.88-.88V35h-3.79a.89.89 0 01-.84-.61.88.88 0 01.32-1l20.86-15.31a.87.87 0 011 0l20.89 15.37a.87.87 0 01.32 1 .89.89 0 01-.84.61h-3.78v28.2a.88.88 0 01-.88.86zm-31.5-1.76h30.62V34.15a.88.88 0 01.88-.88h2L40 19.88 21.82 33.27h2a.89.89 0 01.88.88z" class="cls-9" data-name="Path 4772"/><path id="Path_4773" d="M15.67 56.58a.88.88 0 01-.58-1.58l22.12-19.43a.88.88 0 011.13 0l3.78 3L59.5 19.16l-4.15-.63a.89.89 0 01.27-1.75l5.75.89a.88.88 0 01.53 1.46l-19 21.23a.87.87 0 01-1.2.1l-3.85-3.08-21.57 19a.84.84 0 01-.61.2z" class="cls-9" data-name="Path 4773"/><path id="Path_4774" d="M62.12 24.29a.88.88 0 01-.86-.73l-.89-4.86a.885.885 0 111.74-.32l.89 4.87a.87.87 0 01-.71 1z" class="cls-9" data-name="Path 4774"/><path id="Path_4775" d="M35.18 47.4a2.49 2.49 0 01.75-1.88 2.73 2.73 0 012-.72 2.78 2.78 0 012 .71 2.55 2.55 0 01.75 1.93v.62a2.48 2.48 0 01-.75 1.88 3.12 3.12 0 01-4 0 2.51 2.51 0 01-.75-1.94zm1.66.66a1.21 1.21 0 00.29.84 1.111 1.111 0 001.55-.01A1.22 1.22 0 0039 48v-.6a1.21 1.21 0 00-.29-.84 1.1 1.1 0 00-1.55 0 1.21 1.21 0 00-.29.87zm1.57 8.55L37.19 56l6.14-9.82 1.21.66zm2.78-2.14a2.48 2.48 0 01.75-1.88 2.8 2.8 0 012-.71 2.77 2.77 0 012 .7 2.51 2.51 0 01.76 1.94v.62a2.5 2.5 0 01-.79 1.86 2.78 2.78 0 01-2 .71 2.75 2.75 0 01-2-.72 2.49 2.49 0 01-.75-1.89zm1.65.67a1.17 1.17 0 00.31.81 1 1 0 00.78.34q1.05 0 1-1.17v-.65a1.21 1.21 0 00-.29-.84 1.124 1.124 0 00-1.55 0 1.2 1.2 0 00-.3.86z" data-name="Path 4775" fill="#221f20"/></g></g></g></svg>