<svg xmlns="http://www.w3.org/2000/svg" id="Component" width="148.875" height="148.875"><defs><clipPath id="clip-path"><circle id="Ellipse_2217" cx="74.438" cy="74.438" r="74.438" data-name="Ellipse 2217" fill="none"/></clipPath><style>.cls-4{fill:none;stroke:#ffaf00;stroke-miterlimit:10;stroke-width:5px}</style></defs><g id="Group_3392" data-name="Group 3392" transform="translate(1128 -121)" opacity=".3"><g id="Group_364" data-name="Group 364" transform="translate(-1128 121)" clip-path="url(#clip-path)"><path id="Line_165" d="M0 154.357L154.357 0" class="cls-4" data-name="Line 165" transform="translate(-48.065 -111.771)"/><path id="Line_166" d="M0 154.357L154.357 0" class="cls-4" data-name="Line 166" transform="translate(-43.402 -99.336)"/><path id="Line_167" d="M0 154.357L154.357 0" class="cls-4" data-name="Line 167" transform="translate(-38.738 -86.901)"/><path id="Line_168" d="M0 154.357L154.357 0" class="cls-4" data-name="Line 168" transform="translate(-34.075 -74.465)"/><path id="Line_169" d="M0 154.357L154.357 0" class="cls-4" data-name="Line 169" transform="translate(-29.412 -62.03)"/><path id="Line_170" d="M0 154.357L154.357 0" class="cls-4" data-name="Line 170" transform="translate(-24.749 -49.595)"/><path id="Line_171" d="M0 154.357L154.357 0" class="cls-4" data-name="Line 171" transform="translate(-20.086 -37.16)"/><path id="Line_172" d="M0 154.357L154.357 0" class="cls-4" data-name="Line 172" transform="translate(-15.423 -24.725)"/><path id="Line_173" d="M0 154.357L154.357 0" class="cls-4" data-name="Line 173" transform="translate(-10.759 -12.29)"/><path id="Line_174" d="M0 154.357L154.357 0" class="cls-4" data-name="Line 174" transform="translate(-6.096 .146)"/><path id="Line_175" d="M0 154.357L154.357 0" class="cls-4" data-name="Line 175" transform="translate(-1.433 12.581)"/><path id="Line_176" d="M0 154.357L154.357 0" class="cls-4" data-name="Line 176" transform="translate(3.23 25.016)"/><path id="Line_177" d="M0 154.357L154.357 0" class="cls-4" data-name="Line 177" transform="translate(7.893 37.451)"/><path id="Line_178" d="M0 154.357L154.357 0" class="cls-4" data-name="Line 178" transform="translate(12.557 49.886)"/><path id="Line_179" d="M0 154.357L154.357 0" class="cls-4" data-name="Line 179" transform="translate(17.22 62.321)"/><path id="Line_180" d="M0 154.357L154.357 0" class="cls-4" data-name="Line 180" transform="translate(21.883 74.756)"/><path id="Line_181" d="M0 154.357L154.357 0" class="cls-4" data-name="Line 181" transform="translate(26.546 87.192)"/><path id="Line_182" d="M0 154.357L154.357 0" class="cls-4" data-name="Line 182" transform="translate(31.209 99.627)"/><path id="Line_183" d="M0 154.357L154.357 0" class="cls-4" data-name="Line 183" transform="translate(35.873 112.062)"/><path id="Line_184" d="M0 154.357L154.357 0" class="cls-4" data-name="Line 184" transform="translate(40.536 124.497)"/><path id="Line_185" d="M0 154.357L154.357 0" class="cls-4" data-name="Line 185" transform="translate(45.199 136.932)"/></g></g></svg>