<svg xmlns="http://www.w3.org/2000/svg" width="72" height="72"><defs><style>.prefix__cls-2{fill:#343434}.prefix__cls-5{opacity:.6}</style></defs><g id="prefix__Group_4265" data-name="Group 4265" transform="translate(-749 -2101)"><g id="prefix__Hassle-free_Stay" data-name="Hassle-free Stay" transform="translate(745 2097)"><g id="prefix__Layer_1" data-name="Layer 1"><g id="prefix__Rectangle_5731" fill="#fff" stroke="#eecf09" stroke-width="2" data-name="Rectangle 5731" transform="translate(4 4)"><rect width="72" height="72" stroke="none" rx="8"/><rect width="70" height="70" x="1" y="1" fill="none" rx="7"/></g><g id="prefix__Layer_2" data-name="Layer 2" transform="translate(11.403 6.328)"><g id="prefix__Layer_1-2" data-name="Layer 1" transform="translate(11.388 18.42)"><g id="prefix__Layer_1-2-2" data-name="Layer 1-2"><path id="prefix__Path_53105" d="M42.316 26.729a2.866 2.866 0 112.036-.831 2.86 2.86 0 01-2.036.831zm0-4.662a1.8 1.8 0 101.8 1.8 1.8 1.8 0 00-1.8-1.8z" class="prefix__cls-2" data-name="Path 53105" transform="translate(-22.603 -19.454)"/><path id="prefix__Path_53106" d="M45.755 39.6a.529.529 0 01-.529-.529v-3.3a2.583 2.583 0 00-5.161 0v3.3a.529.529 0 01-1.057 0v-3.3a3.641 3.641 0 117.275 0v3.3a.523.523 0 01-.529.529z" class="prefix__cls-2" data-name="Path 53106" transform="translate(-22.414 -23.831)"/><path id="prefix__Path_53107" d="M45.207 64.447H11.948a.541.541 0 01-.559-.5.529.529 0 01.5-.559h33.318a.529.529 0 01.5.559.535.535 0 01-.5.5z" class="prefix__cls-2" data-name="Path 53107" transform="translate(-11.388 -36.373)"/><path id="prefix__Path_53108" d="M42.6 56.267H18.09v-.853a.535.535 0 01.529-.535.529.529 0 01.487.33h22.438V43.957H28.465a.53.53 0 01-.06-1.057H42.6z" class="prefix__cls-2" data-name="Path 53108" transform="translate(-14.064 -28.193)"/><path id="prefix__Path_53109" d="M18.649 49.076a.535.535 0 01-.529-.529V42.9h4.133a.535.535 0 01.559.5.523.523 0 01-.5.553.1.1 0 01-.06 0h-3.093v4.59a.523.523 0 01-.511.529z" class="prefix__cls-2" data-name="Path 53109" transform="translate(-14.076 -28.193)"/><path id="prefix__Path_53110" d="M44.985 55.758a.523.523 0 01-.529-.529v-6.212h-9.468a.53.53 0 11-.06-1.057H45.49v7.269a.523.523 0 01-.523.529z" class="prefix__cls-2" data-name="Path 53110" transform="translate(-20.587 -30.213)"/><path id="prefix__Path_53111" d="M23.275 49.017h-2.066a.529.529 0 010-1.057h2.067a.53.53 0 11.06 1.057z" class="prefix__cls-2" data-name="Path 53111" transform="translate(-15.098 -30.212)"/><path id="prefix__Path_53112" d="M27.416 31.041a2.866 2.866 0 112.866-2.866 2.872 2.872 0 01-2.866 2.866zm0-4.668a1.8 1.8 0 101.8 1.8 1.8 1.8 0 00-1.8-1.8z" class="prefix__cls-2" data-name="Path 53112" transform="translate(-16.643 -21.171)"/><path id="prefix__Path_53113" d="M31.4 53.067h-6.753a.529.529 0 01-.5-.559.523.523 0 01.5-.5h5.689V38.672a2.583 2.583 0 00-5.161 0v6.494a.523.523 0 01-.5.553.529.529 0 01-.559-.5v-6.547a3.641 3.641 0 117.275 0z" class="prefix__cls-2" data-name="Path 53113" transform="translate(-16.469 -24.993)"/><path id="prefix__Path_53114" d="M24.332 59.541H18.09V51.1h4.458a1.8 1.8 0 011.8 1.8zm-5.185-1.057h4.127v-5.606a.733.733 0 00-.727-.727h-3.4z" class="prefix__cls-2" data-name="Path 53114" transform="translate(-14.064 -31.467)"/><path id="prefix__Path_53115" d="M57.446 27.251a4.416 4.416 0 114.416-4.416 4.422 4.422 0 01-4.416 4.416zm0-7.774a3.358 3.358 0 103.376 3.364 3.358 3.358 0 00-3.376-3.364z" class="prefix__cls-2" data-name="Path 53115" transform="translate(-28.013 -18.42)"/><path id="prefix__Path_53116" d="M61.694 25.036h-2.235v-3.088a.53.53 0 011.057-.06v2.085h1.2a.529.529 0 110 1.057z" class="prefix__cls-2" data-name="Path 53116" transform="translate(-30.579 -19.605)"/><path id="prefix__Rectangle_5741" d="M0 0h.517v.907H0z" class="prefix__cls-2" data-name="Rectangle 5741" transform="translate(20.878 16.209)"/><path id="prefix__Rectangle_5742" d="M0 0h.517v.907H0z" class="prefix__cls-2" data-name="Rectangle 5742" transform="translate(22.176 16.209)"/><path id="prefix__Rectangle_5743" d="M0 0h.517v.907H0z" class="prefix__cls-2" data-name="Rectangle 5743" transform="translate(23.473 16.209)"/><path id="prefix__Rectangle_5744" d="M0 0h.517v.907H0z" class="prefix__cls-2" data-name="Rectangle 5744" transform="translate(24.765 16.209)"/><path id="prefix__Rectangle_5745" d="M0 0h.517v.907H0z" class="prefix__cls-2" data-name="Rectangle 5745" transform="translate(26.063 16.209)"/></g></g></g><g id="prefix__Group_4282" data-name="Group 4282" transform="rotate(90 32.853 38.782)" style="isolation:isolate"><g id="prefix__Group_3765" data-name="Group 3765" transform="translate(0 54.787)"><path id="prefix__Path_53060" fill="#ffea65" d="M5.173 10.848v-.055A6.315 6.315 0 000 4.9V0a11.173 11.173 0 0110.03 10.792v.055z" data-name="Path 53060"/></g><g id="prefix__Group_3767" class="prefix__cls-5" data-name="Group 3767" transform="translate(55.942 53.885)"><path id="prefix__Path_53062" fill="#5dc1bd" d="M6.634 7.667L0 3.833 6.634 0z" data-name="Path 53062"/></g><g id="prefix__Group_3768" class="prefix__cls-5" data-name="Group 3768" transform="translate(44.649)"><circle id="prefix__Ellipse_2700" cx="2.324" cy="2.324" r="2.324" fill="#00ace7" data-name="Ellipse 2700"/></g></g></g></g></g></svg>