<?xml version="1.0" encoding="UTF-8"?>
<svg width="228px" height="234px" viewBox="0 0 228 234" version="1.1" xmlns="http://www.w3.org/2000/svg" xmlns:xlink="http://www.w3.org/1999/xlink">
    <!-- Generator: Sketch 51.1 (57501) - http://www.bohemiancoding.com/sketch -->
    <title>shutterstock_268882493 [Converted]</title>
    <desc>Created with Sketch.</desc>
    <defs></defs>
    <g id="Page-1" stroke="none" stroke-width="1" fill="none" fill-rule="evenodd">
        <g id="shutterstock_268882493-[Converted]">
            <g id="Group" transform="translate(88.000000, 0.000000)" fill-rule="nonzero">
                <g transform="translate(88.000000, 38.000000)" id="Rectangle-path">
                    <rect fill="#C0C0C0" opacity="0.2" x="0" y="0" width="52" height="104"></rect>
                    <g transform="translate(8.000000, 11.000000)" fill="#E3E3E3">
                        <rect x="0.358695652" y="0.640206186" width="11.9804348" height="14.2268041"></rect>
                        <rect x="20.9478261" y="0.640206186" width="11.9804348" height="14.2268041"></rect>
                        <rect x="0.358695652" y="25.8216495" width="11.9804348" height="14.2268041"></rect>
                        <rect x="20.9478261" y="54.1329897" width="11.9804348" height="14.2268041"></rect>
                    </g>
                </g>
                <g id="Rectangle-path">
                    <rect fill="#C0C0C0" opacity="0.2" x="0.9" y="0.4" width="56.6" height="158.1"></rect>
                    <g transform="translate(5.000000, 4.000000)" fill="#E3E3E3">
                        <rect x="0.7" y="0.4" width="10.8" height="12.9"></rect>
                        <rect x="20.2" y="20.4" width="10.8" height="12.9"></rect>
                        <rect x="8" y="43.5" width="10.8" height="12.9"></rect>
                        <rect x="20.2" y="71.3" width="10.8" height="12.9"></rect>
                    </g>
                </g>
            </g>
            <g id="Group" transform="translate(0.000000, 33.000000)">
                <path d="M87.1,41.8 L86.1,39.7 C87.5,39.1 119.9,24 147.2,33.6 L146.4,35.8 C120,26.5 87.4,41.6 87.1,41.8 Z" id="Shape" fill="#7D5A3F" fill-rule="nonzero"></path>
                <g transform="translate(136.000000, 25.000000)" fill-rule="nonzero" id="Shape">
                    <g transform="translate(28.000000, 52.000000)" fill="#F5AF7E">
                        <path d="M13,15.4 L16.8,11.6 C16.7,11.4 16.6,11.2 16.5,10.9 L12.2,6.6 L9.3,6.2 L3.4,0.3 L0.5,3 L6.6,9.1 L8.7,12.7 L11.8,15.8 C12.3,15.7 12.7,15.7 13,15.4 Z"></path>
                        <path d="M14.8,9.6 L17.3,10.6 C17.4,10.6 17.5,10.7 17.6,10.7 C18.7,11 18.7,10.9 18.9,10.6 C19.1,10.3 19,9.9 18.7,9.7 C18.7,9.7 18.7,9.7 18.6,9.7 L13,6.7 C12.3,6.6 12.6,6.7 12.3,7.2 C12.2,7.6 14.3,9.2 14.8,9.6 Z"></path>
                        <path d="M15.2,9.4 C15.8,9 16,9.2 15.9,8.6 C15.8,8.1 13.7,7.1 13.2,6.7 L9.4,6.1 L13.1,10.6 L15.2,9.4 Z"></path>
                    </g>
                    <path d="M18.8,40.4 L6.4,0.7 L0.4,4.7 L13.4,44.3 C13.5,44.6 13.8,44.9 14,45.1 C14,45.1 14,45.1 14,45.1 L31.3,58 L34.5,54.1 L18.8,40.4 Z" fill="#F0ECEC"></path>
                </g>
                <path d="M174.2,83.5 L174.2,91.8 C173.7,92.7 172.1,94.8 168.7,95.4 C167.8,95.6 166.7,95.6 165.5,95.5 C164.6,95.4 163.6,95.2 162.5,94.9 C161.3,94.5 159.9,95.3 159.6,96.5 C159.2,97.7 160,99.1 161.2,99.4 C163.3,100 165.2,100.3 166.9,100.3 C167.4,100.3 167.9,100.2 168.4,100.2 C174.3,99.6 177.6,95.9 178.7,93.3 C178.8,93 178.9,92.8 178.9,92.5 C178.9,92.5 178.9,92.4 178.9,92.4 L178.9,83.2 L174.2,83.5 Z" id="Shape" fill="#000000" fill-rule="nonzero"></path>
                <g transform="translate(68.000000, 65.000000)" fill-rule="nonzero">
                    <g transform="translate(8.000000, 81.000000)">
                        <rect id="Rectangle-path" fill="#F1B297" transform="translate(13.811600, 10.495040) rotate(25.837297) translate(-13.811600, -10.495040) " x="10.4117332" y="0.795420053" width="6.79973357" height="19.3992399"></rect>
                        <path d="M3.1,17.3 C3.7,16.4 4.7,15.3 6.3,13.5 C7.7,11.9 8.2,12.6 7.8,14.7 C7.6,16.1 8.2,16.7 8.8,16.9 C12.1,18.3 15.6,16.2 15.6,16.2 C15.6,16.2 17.3,21.1 19,24.5 C20.5,27.6 21,28.6 22.9,31.9 C24.6,34.8 25,37.2 25,37.2 C25,37.7 24.8,38 24.6,38.3 L0.8,21 C1.4,20.1 2.6,18 3.1,17.3 Z" id="Shape" fill="#F0ECEC"></path>
                    </g>
                    <path d="M46.1,46.3 L14.1,0.3 L0,3 L35.1,48.9 L18.5,88.2 L26.1,92.9 L45.6,52.3 C45.8,52 45.9,51.6 46,51.3 C47,49.7 47.1,47.8 46.1,46.3 Z" id="Shape" fill="#384D64"></path>
                </g>
                <path d="M103,163 L93,178.2 L89.9,176.2 C89.2,175.7 88.2,175.9 87.7,176.7 L86.8,178 C86.3,178.7 86.5,179.7 87.3,180.2 L95.7,185.7 C96.4,186.2 97.4,186 97.9,185.2 L98.8,183.9 C99.3,183.2 99.1,182.2 98.3,181.7 L95.2,179.7 L105.2,164.6 C104.2,164.6 103.3,164 103,163 Z" id="Shape" fill="#808080" fill-rule="nonzero"></path>
                <polygon id="Shape" points="151.3 90.7 151.7 88.2 151.4 88.2"></polygon>
                <path d="M178.7,95.9 C178.8,95.8 178.9,95.6 178.9,95.5 L178.9,86.5 L178.7,86.5 L178.7,95.9 C178.7,95.8 178.7,95.9 178.7,95.9 Z" id="Shape"></path>
                <g transform="translate(131.000000, 106.000000)" fill-rule="nonzero">
                    <polygon id="Shape" fill="#C1DBDF" points="90.5 47.3 90.5 46.8 49.1 46.8 87.9 32.3 87.7 31.9 49 46.3 80.6 19.6 80.2 19.2 48.7 45.9 69.6 10.3 69.2 10 48.2 45.8 55.2 4.9 54.7 4.8 47.7 45.6 40.5 4.9 40 5 47.2 45.7 26.6 9.8 26.2 10.1 46.8 46 15.2 19.3 14.8 19.7 46.5 46.4 7.5 32.4 7.4 32.8 46.3 46.8 4.9 46.9 4.9 47.4 46.4 47.3 7.6 61.8 7.7 62.3 46.5 47.8 14.9 74.5 15.2 74.9 46.8 48.2 25.8 83.8 26.3 84.1 47.3 48.4 40.3 89.2 40.8 89.3 47.7 48.5 55 89.3 55.5 89.2 48.2 48.4 68.9 84.3 69.3 84.1 48.6 48.2 80.3 74.8 80.6 74.5 48.9 47.8 87.9 61.8 88.1 61.3 49.2 47.3"></polygon>
                    <path d="M47.7,0 C21.7,0 0.6,21.1 0.6,47.1 C0.6,73.1 21.7,94.2 47.7,94.2 C73.7,94.2 94.8,73.1 94.8,47.1 C94.8,21.1 73.7,0 47.7,0 Z M47.7,89.2 C24.4,89.2 5.6,70.3 5.6,47.1 C5.6,23.8 24.5,5 47.7,5 C71,5 89.8,23.9 89.8,47.1 C89.8,70.3 71,89.2 47.7,89.2 Z" id="Shape" fill="#231F20"></path>
                    <path d="M47.7,5 C24.4,5 5.6,23.9 5.6,47.1 C5.6,70.4 24.5,89.2 47.7,89.2 C71,89.2 89.8,70.3 89.8,47.1 C89.8,23.8 71,5 47.7,5 Z M47.7,87.1 C25.6,87.1 7.7,69.2 7.7,47.1 C7.7,25 25.6,7.1 47.7,7.1 C69.8,7.1 87.7,25 87.7,47.1 C87.8,69.2 69.8,87.1 47.7,87.1 Z" id="Shape" fill="#D8A922"></path>
                    <circle id="Oval" fill="#AE9023" cx="47.7" cy="47.1" r="5.2"></circle>
                </g>
                <path d="M136.5,22.8 C136.5,22.8 133.9,23.6 128.8,25.9 L136.5,22.8 Z" id="Shape"></path>
                <g transform="translate(0.000000, 106.000000)" fill-rule="nonzero">
                    <polygon id="Shape" fill="#C1DBDF" points="90.2 47.3 90.2 46.8 48.8 46.8 87.6 32.3 87.4 31.9 48.7 46.3 80.3 19.6 79.9 19.2 48.4 45.9 69.3 10.3 68.9 10 47.9 45.8 54.9 4.9 54.4 4.8 47.4 45.6 40.2 4.9 39.7 5 46.9 45.7 26.3 9.8 25.9 10.1 46.5 46 14.9 19.3 14.5 19.7 46.2 46.4 7.2 32.4 7.1 32.8 46 46.8 4.6 46.9 4.6 47.4 46.1 47.3 7.3 61.8 7.4 62.3 46.2 47.8 14.6 74.5 14.9 74.9 46.5 48.2 25.5 83.8 26 84.1 47 48.4 40 89.2 40.5 89.3 47.4 48.5 54.7 89.3 55.2 89.2 47.9 48.4 68.6 84.3 69 84.1 48.4 48.2 80 74.8 80.3 74.5 48.7 47.8 87.6 61.8 87.8 61.3 48.9 47.3"></polygon>
                    <path d="M47.4,0 C21.4,0 0.3,21.1 0.3,47.1 C0.3,73.1 21.4,94.2 47.4,94.2 C73.4,94.2 94.5,73.1 94.5,47.1 C94.5,21.1 73.4,0 47.4,0 Z M47.4,89.2 C24.1,89.2 5.3,70.3 5.3,47.1 C5.3,23.8 24.2,5 47.4,5 C70.7,5 89.5,23.9 89.5,47.1 C89.5,70.3 70.7,89.2 47.4,89.2 Z" id="Shape" fill="#231F20"></path>
                    <path d="M47.4,5 C24.1,5 5.3,23.9 5.3,47.1 C5.3,70.4 24.2,89.2 47.4,89.2 C70.7,89.2 89.5,70.3 89.5,47.1 C89.5,23.8 70.7,5 47.4,5 Z M47.4,87.1 C25.3,87.1 7.4,69.2 7.4,47.1 C7.4,25 25.3,7.1 47.4,7.1 C69.5,7.1 87.4,25 87.4,47.1 C87.5,69.2 69.5,87.1 47.4,87.1 Z" id="Shape" fill="#D8A922"></path>
                    <circle id="Oval" fill="#D8A922" cx="47.4" cy="47.6" r="4.6"></circle>
                </g>
                <path d="M49.8,163.8 L43,173.4 L43.6,173.9 L50.6,164 C50.7,163.9 50.7,163.6 50.6,163.5 L46.2,157.9 C45.6,157.7 45,157.4 44.5,157 L49.8,163.8 Z" id="Shape" fill="#414042" fill-rule="nonzero"></path>
                <path d="M47.1,149.1 C47.1,149.1 47,149.1 47,149.1 C47.2,149.1 47.3,149.1 47.5,149.1 L47.1,149.1 Z" id="Shape" fill="#414042" fill-rule="nonzero"></path>
                <path d="M103.7,149.6 L47.5,149 C48.5,149 49.4,149.3 50.1,149.8 L103.7,150.4 C103.7,150.4 103.7,150.4 103.7,150.4 C103.9,150.4 104.1,150.2 104.1,150 C104.1,149.8 103.9,149.6 103.7,149.6 Z" id="Shape" fill="#414042" fill-rule="nonzero"></path>
                <polygon id="Shape" fill="#414042" fill-rule="nonzero" points="45.9 178.5 45.8 177.8 104.7 176.2 104.8 177"></polygon>
                <circle id="Oval" fill="#D8A922" fill-rule="nonzero" cx="46" cy="175.1" r="3.4"></circle>
                <g transform="translate(173.000000, 87.000000)" fill="#F7BF98" fill-rule="nonzero" id="Shape">
                    <path d="M3,2.7 C3.2,2.3 3.7,2.2 4.1,2.4 L7.9,4.2 C8.3,4.4 8.5,4.9 8.3,5.2 C8.1,5.6 7.6,5.7 7.2,5.5 L3.4,3.7 C3,3.6 2.8,3.1 3,2.7 Z"></path>
                    <path d="M3.5,0.8 C3.7,0.4 4.2,0.3 4.6,0.5 L8.4,2.3 C8.8,2.5 9,3 8.8,3.3 C8.6,3.7 8.1,3.8 7.7,3.6 L3.9,1.8 C3.5,1.7 3.4,1.2 3.5,0.8 Z"></path>
                    <path d="M1.9,4.1 C2.1,3.7 2.6,3.6 3,3.8 L6.8,5.6 C7.2,5.8 7.4,6.3 7.2,6.6 C7,7 6.5,7.1 6.1,6.9 L2.3,5.1 C1.9,4.9 1.7,4.4 1.9,4.1 Z"></path>
                    <path d="M0.9,5.5 C1.1,5.1 1.6,5 2,5.2 L5.4,6.8 C5.8,7 6,7.5 5.8,7.8 C5.6,8.2 5.1,8.3 4.7,8.1 L1.3,6.5 C0.9,6.3 0.7,5.8 0.9,5.5 Z"></path>
                </g>
                <g transform="translate(45.000000, 75.000000)" fill-rule="nonzero" id="Shape">
                    <path d="M58.7,90.6 C58.5,90.6 58.4,90.6 58.2,90.6 C57.3,90.4 56.7,89.8 56.4,89 L32.1,6.7 C31.7,5.5 32.4,4.1 33.7,3.8 C34.9,3.4 36.3,4.1 36.6,5.4 L44.9,33.3 L109.1,24.4 C110.1,24.3 111,24.7 111.5,25.6 C112,26.4 111.9,27.5 111.3,28.2 L60.6,89.8 C60,90.3 59.4,90.6 58.7,90.6 Z M46.2,37.8 L59.7,83.3 L103.8,29.8 L46.2,37.8 Z" fill="#00D09F"></path>
                    <path d="M16.3,1.3 L15.8,2.6 C15.6,3.1 15.7,3.6 16.1,3.9 L22.9,9.6 C23.1,9.7 23.2,9.8 23.4,9.9 L31.2,11.4 C31.4,11.4 31.5,11.4 31.7,11.4 L44.6,8.3 C44.7,8.3 44.8,8.3 44.9,8.3 L54.4,8.4 C55.2,8.4 55.8,7.6 55.5,6.8 L54.6,4.5 C54.4,4.1 54.1,3.8 53.6,3.7 L38.7,2.5 C38.7,2.5 38.6,2.5 38.6,2.5 L29.8,2.5 C29.7,2.5 29.7,2.5 29.6,2.5 L17.6,0.5 C17,0.5 16.5,0.8 16.3,1.3 Z" fill="#414042"></path>
                    <path d="M137.9,7.3 C137.4,6.9 136.8,6.6 136.1,6.7 L132.8,7 L109.2,9 C108.2,9.1 107.3,9.8 107.1,10.8 L106.7,13.3 L106.3,15.8 L105,23.4 C105.1,23.7 105.2,24 105.4,24.2 C105.9,24.7 106.6,24.7 107.6,24.9 C108.9,25.2 110.7,24.9 111,23.6 L111.3,13.7 L129,12 L133.7,11.6 L133.9,11.6 L133.9,20.6 C133.8,20.7 133.7,20.8 133.7,21 C132.7,22.5 129.9,25.4 123.5,24 C123.1,23.9 122.7,23.9 122.3,23.7 C121.6,23.5 120.9,23.7 120.3,24 C119.9,24.3 119.5,24.7 119.3,25.3 C118.9,26.5 119.7,27.9 120.9,28.2 C121.7,28.4 122.4,28.6 123.2,28.7 C124.4,28.9 125.6,29.1 126.6,29.1 C133.5,29.1 137.2,24.9 138.4,22.1 C138.5,21.8 138.6,21.5 138.6,21.2 L138.6,9 C138.7,8.4 138.4,7.7 137.9,7.3 Z" fill="#414042"></path>
                    <path d="M131.2,79.9 C130.5,78.9 114.5,55.8 105.1,23.3 L111.1,21.5 C120.3,53 136.2,76.1 136.4,76.3 L131.2,79.9 Z" fill="#00D09F"></path>
                    <path d="M56.3,89.8 C56.2,89.8 56.1,89.8 56,89.8 L2.1,80.1 C1.5,80 1,79.6 0.9,79 C0.7,78.4 0.9,77.8 1.4,77.4 L44,41.1 C44.7,40.5 45.6,40.6 46.2,41.3 C46.8,42 46.7,43 46,43.5 L6,77.7 L56.6,86.8 C57.5,87 58,87.8 57.9,88.6 C57.7,89.3 57.1,89.8 56.3,89.8 Z" fill="#00D09F"></path>
                </g>
                <g transform="translate(90.000000, 140.000000)" fill-rule="nonzero" id="Shape">
                    <g transform="translate(0.000000, 9.000000)" fill="#D8A922">
                        <path d="M14.4,0.5 C6.8,0.5 0.6,6.7 0.6,14.3 C0.6,21.9 6.8,28.1 14.4,28.1 C22,28.1 28.2,21.9 28.2,14.3 C28.2,6.7 22,0.5 14.4,0.5 Z M14.4,26.7 C7.5,26.7 1.9,21.1 1.9,14.2 C1.9,7.3 7.5,1.7 14.4,1.7 C21.3,1.7 26.9,7.3 26.9,14.2 C26.9,21.2 21.3,26.7 14.4,26.7 Z"></path>
                        <path d="M14.4,2.4 C7.8,2.4 2.5,7.7 2.5,14.3 C2.5,20.9 7.8,26.2 14.4,26.2 C21,26.2 26.3,20.9 26.3,14.3 C26.3,7.7 21,2.4 14.4,2.4 Z M12.5,3.5 L16.3,3.5 L18.2,6.8 L16.3,10.1 L12.5,10.1 L10.6,6.8 L12.5,3.5 Z M17,14.3 C17,15.7 15.8,16.9 14.4,16.9 C13,16.9 11.8,15.7 11.8,14.3 C11.8,12.9 13,11.7 14.4,11.7 C15.8,11.7 17,12.8 17,14.3 Z M5.7,17.6 L3.8,14.3 L5.7,11 L9.5,11 L11.4,14.3 L9.5,17.6 L5.7,17.6 Z M16.3,24.7 L12.5,24.7 L10.6,21.4 L12.5,18.1 L16.3,18.1 L18.2,21.4 L16.3,24.7 Z M19.6,17.6 L17.7,14.3 L19.6,11 L23.4,11 L25.3,14.3 L23.4,17.6 L19.6,17.6 Z"></path>
                    </g>
                    <path d="M31.5,6 L23.1,0.6 C22.4,0.1 21.4,0.3 20.9,1.1 L20,2.4 C19.5,3.1 19.7,4.1 20.5,4.6 L23.6,6.6 L13.8,21.8 C13.8,21.8 13.8,21.8 13.7,21.8 C13.7,21.8 13.7,21.8 13.7,21.8 C13.1,22.1 12.7,22.7 12.7,23.4 C12.7,23.4 12.7,23.4 12.7,23.4 C12.7,24.4 13.5,25.1 14.4,25.1 C14.6,25.1 14.7,25.1 14.9,25 C14.9,25 14.9,25 14.9,25 C15.6,24.8 16.1,24.1 16.1,23.4 C16.1,23.3 16.1,23.3 16.1,23.2 L25.9,8 L29,10 C29.7,10.5 30.7,10.3 31.2,9.5 L32.1,8.2 C32.4,7.4 32.2,6.4 31.5,6 Z" fill="#808080"></path>
                </g>
                <circle id="Oval" fill="#231F20" fill-rule="nonzero" cx="178.7" cy="153.1" r="2.1"></circle>
                <circle id="Oval" fill="#231F20" fill-rule="nonzero" cx="47.4" cy="153.6" r="1.5"></circle>
                <g transform="translate(55.000000, 0.000000)" fill-rule="nonzero">
                    <g transform="translate(77.000000, 0.000000)" id="Shape">
                        <path d="M24,23.5 C23.9,23.5 24,23.5 24,23.5 Z" fill="#D0EAF5"></path>
                        <path d="M18.3,18.1 C18.5,17.6 18.5,17.2 18.5,16.9 L20.7,6.1 L40.9,10.4 L39.3,16.8 L39.4,24.9 C39.2,27.9 36.7,26 36.7,26 C36.7,26 35.6,29.5 35,30.5 L32.6,34 C32,34.3 31.2,34.4 30.8,34.4 L27.3,33.7 L21.6,30.1 L9.7,37.6 C9.7,37.7 6.5,38.3 6.5,38.3 L0.7,33.8 L18.9,27.1 L17.9,22.2 C17.7,20.9 17.9,19.5 18.3,18.1 Z" fill="#E4A580"></path>
                        <path d="M26.3,26.8 C26.1,21.9 27,18.4 27.9,16.3 C27.9,15.9 27.9,15.7 27.9,15.7 L27.2,15.6 L22.6,24.3 C21.8,25.8 21.9,27.6 22.8,29 L24.9,32.3 L27.2,33.7 L30.7,34.4 C31.1,34.4 31.9,34.3 32.5,34 L34,31.8 C31.9,34.7 26.3,26.8 26.3,26.8 Z" fill="#C79174"></path>
                        <polygon fill="#414042" points="28 15.8 27.3 15.6 27.3 11.8 25.9 11.5 18.6 17.7 18.1 17.6 20.8 5.8 31.3 8.4"></polygon>
                        <path d="M19.1,11.8 L20.7,5.8 C20.9,5 21.1,4.2 21.5,3.6 L21.6,3.3 C21.6,3.2 21.7,3.1 21.7,3.1 C24.1,1 27.9,-0.6 37,2 C46.1,4.7 43.7,9.1 43.7,9.1 C41.1,13.5 32.4,14.7 31,14.9 L31,14.8 C31.9,14.1 33.5,12.7 33.7,11.2 C32.4,12.9 29.1,12.8 28.5,12.9 C29.3,12.3 31.7,9.7 28.9,8.9 C28.9,8.9 27.3,8.4 26.6,8.3 L26.2,8.2 L24,8.2 L19.1,11.8 Z" fill="#414042"></path>
                    </g>
                    <g transform="translate(0.000000, 23.000000)">
                        <path d="M91.8,10.1 L88.3,2.9 C86.6,1 84.3,0.3 81.6,1.4 L72.5,3.5 C60.9,7.7 47.9,15 22.5,30.7 L37.5,47.4 L91.8,16.5 C93.5,14.9 93.5,12 91.8,10.1 Z" id="Shape" fill="#FFFFFF"></path>
                        <path d="M39.2,32.2 L38.8,29.9 C39.1,29.9 66.9,25.2 92.4,11.6 L93.5,13.6 C67.6,27.4 39.5,32.1 39.2,32.2 Z" id="Shape" fill="#7D5A3F"></path>
                        <g transform="translate(57.000000, 4.000000)" id="Shape">
                            <polygon fill="#F36F21" points="32 7.5 33.1 7.5 34.6 5.4 34.4 5 31.7 5 31.3 5.8 1 41.8 0.7 44.8 3.6 46"></polygon>
                            <path d="M34,5.5 C35.4,7.8 37,9.4 37,9.4 L38,6.9 L35.6,5.6 L34.7,4.9 L34.6,4.7 L34.5,3.6 L34.5,0.7 L31.7,2.84217094e-14 C31.7,2.84217094e-14 32.6,2.7 33.9,5.1 C33.9,5.1 33.9,5.2 34,5.2 C34,5.5 34,5.5 34,5.5 Z" fill="#FFFFFF"></path>
                            <polygon fill="#F0ECEC" points="34.6 4.9 32 4.4 31.7 0.3 34.5 0.9"></polygon>
                            <polygon fill="#F0ECEC" points="34.7 5.1 33.9 7.6 37 9.5 38 7"></polygon>
                        </g>
                        <g transform="translate(78.000000, 1.000000)" id="Shape">
                            <g transform="translate(35.000000, 60.000000)" fill="#F5AF7E">
                                <path d="M14.3,14.4 L17.8,10.2 C17.7,10 17.6,9.8 17.5,9.5 L12.9,5.6 L10,5.4 L3.6,5.68434189e-14 L0.9,2.9 L7.5,8.4 L9.9,11.8 L13.2,14.6 C13.5,14.9 14,14.8 14.3,14.4 Z"></path>
                                <path d="M15.6,8.5 L18.2,9.3 C18.3,9.3 18.5,9.4 18.5,9.4 C19.6,9.6 19.6,9.5 19.8,9.2 C20,8.9 19.9,8.5 19.6,8.3 C19.6,8.3 19.6,8.3 19.5,8.3 L13.6,5.8 C12.9,5.7 13.2,5.9 13,6.3 C12.8,6.8 15.1,8.2 15.6,8.5 Z"></path>
                                <path d="M15.9,8.3 C16.5,7.9 16.7,8 16.5,7.4 C16.4,6.9 14.2,6.1 13.6,5.8 L9.8,5.6 L13.9,9.8 L15.9,8.3 Z"></path>
                                <path d="M13.5,9.6 C13.8,9.3 14.3,9.3 14.6,9.5 L17.8,12.2 C18.1,12.5 18.2,13 17.9,13.3 C17.6,13.6 17.1,13.6 16.8,13.4 L13.6,10.7 C13.3,10.5 13.2,10 13.5,9.6 Z"></path>
                                <path d="M14.5,7.9 C14.8,7.6 15.3,7.6 15.6,7.8 L18.8,10.5 C19.1,10.8 19.2,11.3 18.9,11.6 C18.6,11.9 18.1,11.9 17.8,11.7 L14.6,9 C14.3,8.8 14.2,8.3 14.5,7.9 Z"></path>
                                <path d="M12,10.6 C12.3,10.3 12.8,10.3 13.1,10.5 L16.3,13.2 C16.6,13.5 16.7,14 16.4,14.3 C16.1,14.6 15.6,14.6 15.3,14.4 L12.1,11.7 C11.8,11.5 11.8,11 12,10.6 Z"></path>
                                <path d="M10.7,11.8 C11,11.5 11.5,11.5 11.8,11.7 L14.7,14.1 C15,14.4 15.1,14.9 14.8,15.2 C14.5,15.5 14,15.5 13.7,15.3 L10.8,12.9 C10.5,12.6 10.4,12.1 10.7,11.8 Z"></path>
                            </g>
                            <path d="M19.2,41.3 L6.5,0.7 L0.4,4.7 L13.7,45.2 C13.8,45.5 14.1,45.8 14.3,46 C14.3,46 14.3,46 14.3,46 L36.3,63.9 L39.6,59.9 L19.2,41.3 Z" fill="#FFFFFF"></path>
                        </g>
                        <g transform="translate(10.000000, 30.000000)">
                            <g transform="translate(40.000000, 61.000000)">
                                <rect id="Rectangle-path" fill="#F1B297" transform="translate(12.167580, 11.205240) rotate(21.278986) translate(-12.167580, -11.205240) " x="8.767669" y="1.5054939" width="6.79982201" height="19.3994922"></rect>
                                <path d="M2.1,20.9 C2.5,19.9 3.2,18.5 4.3,16.4 C5.3,14.5 5.9,15.1 6,17.2 C6.1,18.6 6.9,19 7.5,19.2 C11,19.8 14,16.9 14,16.9 C14,16.9 16.8,21.2 19.2,24.2 C21.4,26.9 22.1,27.7 24.7,30.5 C27,32.9 27.9,35.1 27.9,35.1 C28,35.6 27.9,36 27.7,36.2 L0.6,24.9 C1.1,23.9 1.8,21.6 2.1,20.9 Z" id="Shape" fill="#F0ECEC"></path>
                            </g>
                            <path d="M72.8,21.5 C72.1,20.7 71.1,20.2 70,20.1 L26.5,18.1 L27.5,17.3 L12.6,0.7 L4.7,7.3 C-0.7,12.3 -1.1,20.8 3.8,26.2 C5.6,28.1 7.4,29 9.2,29.1 L9.4,29.1 C9.5,29.1 9.6,29.1 9.7,29.1 L62.6,30.2 L49.4,67.3 L57.2,71.8 L75.1,27.8 C76,25.6 75,22.9 72.8,21.5 Z" id="Shape" fill="#384D64"></path>
                            <polygon id="Shape" fill="#B91E2D" points="21.2 10.3 12.4 0.7 11.4 1.6 26.4 18.3 27.4 17.3"></polygon>
                        </g>
                        <g transform="translate(0.000000, 11.000000)" id="Shape">
                            <path d="M32.9,7.1 L31.9,5.3 C31.7,4.9 31.2,4.8 30.8,5 L28.5,6.3 L28.8,6.8 L31.1,5.5 C31.2,5.4 31.4,5.5 31.5,5.6 L32.5,7.4 C32.5,7.5 32.5,7.5 32.5,7.6 C32.5,7.7 32.4,7.7 32.4,7.8 L30,9 L30.3,9.5 L32.6,8.2 C32.8,8.1 32.9,7.9 33,7.7 C33.1,7.5 33,7.3 32.9,7.1 Z" fill="#7D5A3F"></path>
                            <path d="M40.1,20.9 L39.2,19 C39,18.6 38.5,18.4 38.1,18.6 L35.7,19.7 L35.9,20.2 L38.3,19.1 C38.4,19 38.6,19.1 38.7,19.2 L39.6,21.1 C39.7,21.2 39.6,21.4 39.5,21.5 L37.1,22.6 L37.3,23.1 L39.7,22 C40.1,21.8 40.3,21.3 40.1,20.9 Z" fill="#7D5A3F"></path>
                            <path d="M14.6,39.8 L0.8,14.6 C0.4,13.9 0.7,13.1 1.4,12.7 L25.8,0.1 C26,2.77625145e-14 26.2,0.1 26.3,0.2 L41.1,27.3 C41.2,27.5 41.1,27.7 41,27.8 L16.6,40.4 C15.9,40.8 15,40.5 14.6,39.8 Z" fill="#7D5A3F"></path>
                            <path d="M14.1,8.1 L27.9,33.3 C28.3,34 29.1,34.2 29.8,33.9 L40.9,27.8 C41,27.7 41.1,27.5 41,27.4 L26.2,0.3 C26.1,0.1 25.9,0.1 25.7,0.2 L14.5,6.3 C14,6.7 13.8,7.4 14.1,8.1 Z" fill="#947B65"></path>
                            <path d="M17.8,19.5 C17.2,19.8 17,20.5 17.3,21.1 L18.7,23.7 C19,24.3 19.7,24.5 20.3,24.2 L22.2,23.2 L19.7,18.6 L17.8,19.5 Z" fill="#9D8538"></path>
                            <path d="M26.6,19.6 L25,16.7 C24.7,16.2 24.1,16.1 23.7,16.3 L19.9,18.4 L22.5,23.1 L26.4,21 C26.6,20.7 26.8,20.1 26.6,19.6 Z" fill="#D1B14A"></path>
                        </g>
                    </g>
                </g>
            </g>
        </g>
    </g>
</svg>