<svg xmlns="http://www.w3.org/2000/svg" width="72" height="72"><defs><style>.prefix__cls-2{fill:#343434}.prefix__cls-6{opacity:.6}</style></defs><g id="prefix__Group_3795" data-name="Group 3795" transform="translate(-749 -2101)"><g id="prefix__Layer_2" data-name="Layer 2" transform="translate(745 2097)"><g id="prefix__Layer_1" data-name="Layer 1"><g id="prefix__Layer_1-2" data-name="Layer 1-2"><g id="prefix__Rectangle_5733" fill="#fff" stroke="#eecf09" stroke-width="2" data-name="Rectangle 5733" transform="translate(4 4)"><rect width="72" height="72" stroke="none" rx="8"/><rect width="70" height="70" x="1" y="1" fill="none" rx="7"/></g><g id="prefix__Layer_2-2" data-name="Layer 2" transform="translate(9.988 7.142)"><g id="prefix__Layer_1-2-2" data-name="Layer 1" transform="translate(12.71 21.45)"><g id="prefix__Layer_1-2-3" data-name="Layer 1-2"><path id="prefix__Path_53127" d="M45.783 46.29h-14.5a.564.564 0 01-.589-.526.551.551 0 01.526-.589h14.563a1.545 1.545 0 001.539-1.539V24.1a1.545 1.545 0 00-1.539-1.545H18.694a1.539 1.539 0 00-1.539 1.545v8.126a.557.557 0 11-1.115 0V24.1a2.654 2.654 0 012.654-2.654h27.089a2.66 2.66 0 012.653 2.654v19.537a2.66 2.66 0 01-2.654 2.654z" class="prefix__cls-2" data-name="Path 53127" transform="translate(-13.931 -21.45)"/><path id="prefix__Path_53128" d="M37.639 31.854h-20.77a1.2 1.2 0 01-.63-.141c-.173-.1.594-.237.581-.385-.023-.307-.528-.569-.05-.589h20.869c.481-.017.892.218.92.526s-.34.572-.821.589z" class="prefix__cls-2" data-name="Path 53128" transform="translate(-13.923 -24.138)"/><path id="prefix__Path_53129" d="M28.2 55.115H15.123A2.413 2.413 0 0112.71 52.7V40a2.413 2.413 0 012.413-2.413H28.2A2.419 2.419 0 0130.628 40v12.7a2.413 2.413 0 01-2.428 2.415zM15.123 38.7a1.3 1.3 0 00-1.267 1.267V52.7a1.3 1.3 0 001.267 1.267H28.2a1.267 1.267 0 001.269-1.267V40a1.3 1.3 0 00-1.269-1.264z" class="prefix__cls-2" data-name="Path 53129" transform="translate(-12.71 -27.368)"/><path id="prefix__Path_53136" d="M47.971 43.984H44V40h3.965zm-2.85-1.115h1.735v-1.735h-1.735z" class="prefix__cls-2" data-name="Path 53136" transform="translate(-22.441 -28.251)"/><path id="prefix__Path_53137" d="M56.285 43.984H52.32V40h3.965zm-2.85-1.115h1.735v-1.735h-1.735z" class="prefix__cls-2" data-name="Path 53137" transform="translate(-25.492 -28.251)"/><path id="prefix__Path_53139" d="M44.812 31.464h-3.965a.557.557 0 010-1.115h3.965a.558.558 0 01.063 1.115z" class="prefix__cls-2" data-name="Path 53139" transform="translate(-14.691 -23.748)"/><text id="prefix___" fill="#343434" data-name="₹" font-family="Poppins-SemiBold, Poppins SemiBold" font-size="14" font-weight="600" letter-spacing=".025em" transform="translate(5.303 24.408)"><tspan x="0" y="0">₹</tspan></text></g></g></g><g id="prefix__Group_4281" data-name="Group 4281" transform="translate(5.828 8.4)" style="isolation:isolate"><g id="prefix__Group_3765" data-name="Group 3765" transform="translate(0 54.787)"><path id="prefix__Path_53060" fill="#ffea65" d="M5.173 10.848v-.055A6.315 6.315 0 000 4.9V0a11.173 11.173 0 0110.03 10.792v.055z" data-name="Path 53060"/></g><g id="prefix__Group_3767" class="prefix__cls-6" data-name="Group 3767" transform="translate(55.942 53.885)"><path id="prefix__Path_53062" fill="#5dc1bd" d="M6.634 7.667L0 3.833 6.634 0z" data-name="Path 53062"/></g><g id="prefix__Group_3768" class="prefix__cls-6" data-name="Group 3768" transform="translate(44.649)"><circle id="prefix__Ellipse_2700" cx="2.324" cy="2.324" r="2.324" fill="#00ace7" data-name="Ellipse 2700"/></g></g></g></g></g></g></svg>