<svg xmlns="http://www.w3.org/2000/svg" width="80" height="80"><defs><clipPath id="clip-path"><path id="Rectangle_5654" d="M0 0h80v80H0z" data-name="Rectangle 5654" transform="translate(745 2095)" stroke="#707070" fill="#fff"/></clipPath><style>.cls-3{fill:#fd0}.cls-5{opacity:.6}.cls-9{fill:#343434}</style></defs><g id="Mask_Group_532" data-name="Mask Group 532" transform="translate(-745 -2095)" clip-path="url(#clip-path)"><g id="Layer_2" data-name="Layer 2" transform="translate(745 2095)"><g id="Layer_1" data-name="Layer 1"><rect id="Rectangle_5667" width="80" height="80" class="cls-3" data-name="Rectangle 5667" rx="4.12"/><rect id="Rectangle_5668" width="72.76" height="72.76" data-name="Rectangle 5668" rx="3.75" transform="translate(3.62 3.62)" fill="#fff"/><g id="Group_3673" class="cls-5" data-name="Group 3673"><path id="Path_4643" d="M76.28 21.61V12.8a11.44 11.44 0 01-10.77-9.38h-8.88a20.25 20.25 0 0019.65 18.19z" data-name="Path 4643" fill="#00b1a9"/></g><g id="Group_3674" class="cls-5" data-name="Group 3674"><path id="Path_4644" d="M68.92 66l-5.78 3.34 5.78 3.34z" data-name="Path 4644" fill="#fcb017"/></g><g id="Group_3675" class="cls-5" data-name="Group 3675"><path id="Path_4645" d="M41.63 7.42l-5.78 3.34 5.78 3.34z" class="cls-3" data-name="Path 4645"/></g><g id="Group_3676" class="cls-5" data-name="Group 3676"><circle id="Ellipse_3079" cx="4.21" cy="4.21" r="4.21" data-name="Ellipse 3079" transform="translate(6.74 63.37)" fill="#00ace7"/></g><path id="Path_4646" d="M25.47 67.78a.87.87 0 01-.41-.11.89.89 0 01-.43-.52l-7.38-24.24-5.67-18.65a.87.87 0 01.59-1.09L48 12.26a.91.91 0 01.67.07.89.89 0 01.43.52L58 42.14a.89.89 0 01-.85 1.14H42.72V60a3.48 3.48 0 00.28 1.43.9.9 0 010 .72.89.89 0 01-.55.49l-16.76 5.1a1.089 1.089 0 01-.22.04zM13.52 24.59l5.42 17.8 7.12 23.41 15.05-4.58A5.19 5.19 0 0141 60V42.4a.88.88 0 01.88-.88H56L47.66 14.2z" class="cls-9" data-name="Path 4646"/><path id="Path_4647" d="M20.11 29.88a.88.88 0 01-.84-.63.89.89 0 01.58-1.1L36 23.24a.88.88 0 01.52 1.68l-16.15 4.92a1.17 1.17 0 01-.26.04z" class="cls-9" data-name="Path 4647"/><path id="Path_4648" d="M21.45 34.29a.89.89 0 01-.84-.63.87.87 0 01.59-1.09l16.15-4.92a.87.87 0 011.09.59.88.88 0 01-.58 1.1l-16.15 4.91a.78.78 0 01-.26.04z" class="cls-9" data-name="Path 4648"/><path id="Path_4649" d="M22.8 38.7a.88.88 0 01-.26-1.7l16.15-4.92a.883.883 0 01.51 1.69l-16.15 4.89a.73.73 0 01-.25.04z" class="cls-9" data-name="Path 4649"/><path id="Path_4650" d="M24.05 63.11L17.8 63a.89.89 0 01-.62-.27.91.91 0 01-.25-.63l.29-19.48a.86.86 0 01.75-.86.89.89 0 011 .61L24.9 62a.88.88 0 01-.85 1.14zm-5.35-1.84l4.16.06-4-13z" class="cls-9" data-name="Path 4650"/><path id="Path_4651" d="M18.4 23.07a.89.89 0 01-.88-.89l.07-4.88a.91.91 0 01.26-.62.93.93 0 01.63-.25l15.22.23a.87.87 0 01.86.75.89.89 0 01-.62 1L18.65 23a.73.73 0 01-.25.07zm.93-4.86V21L28 18.33z" class="cls-9" data-name="Path 4651"/><path id="Path_4652" d="M42.64 63.38h-2.61a.88.88 0 01-.86-.75.9.9 0 01.62-1L42 61a.89.89 0 011.06.48 4.48 4.48 0 00.32.56.88.88 0 01-.72 1.39z" class="cls-9" data-name="Path 4652"/><path id="Path_4653" d="M55.63 38.23a.89.89 0 01-.85-.62L48.83 18a.88.88 0 01.84-1.14l6.25.09a.88.88 0 01.61.27.83.83 0 01.25.63l-.28 19.48a.88.88 0 01-.76.86zm-4.77-19.56l4 13 .19-13z" class="cls-9" data-name="Path 4653"/><path id="Path_4654" d="M58.31 65.23H46.22A5.25 5.25 0 0141.93 63a4.56 4.56 0 01-.49-.85A5.13 5.13 0 0141 60V42.4a.88.88 0 01.88-.88h20.81a.88.88 0 01.88.88V60a5.26 5.26 0 01-5.26 5.23zm-15.59-22V60a3.48 3.48 0 00.28 1.43 4.48 4.48 0 00.32.56 3.5 3.5 0 002.86 1.48h12.13a3.5 3.5 0 003.5-3.47V43.28z" class="cls-9" data-name="Path 4654"/><path id="Path_4655" d="M67.58 57.94H63a.88.88 0 01-.89-.88v-9.13a.89.89 0 01.89-.88h4.61a.89.89 0 01.88.88v9.13a.88.88 0 01-.91.88zm-3.73-1.76h2.85v-7.37h-2.85z" class="cls-9" data-name="Path 4655"/><path id="Path_4656" d="M46.88 40.36l-1.22-1.28a1.89 1.89 0 00-.08-2.69 3.9 3.9 0 01.36-5.34.88.88 0 011.24 0 .87.87 0 010 1.24 2.78 2.78 0 00-.6 1 2 2 0 00.4 2 3.68 3.68 0 01-.1 5.07z" class="cls-9" data-name="Path 4656"/><path id="Path_4657" d="M50.84 39.62l-1.21-1.27a1.88 1.88 0 00-.07-2.69 3.89 3.89 0 01.36-5.34.88.88 0 111.21 1.27 3.06 3.06 0 00-.6 1 2 2 0 00.41 2 3.67 3.67 0 01-.1 5.03z" class="cls-9" data-name="Path 4657"/></g></g></g></svg>