<svg xmlns="http://www.w3.org/2000/svg" width="72" height="72"><defs><style>.prefix__cls-2{fill:#343434}.prefix__cls-6{opacity:.6}</style></defs><g id="prefix__Group_4264" data-name="Group 4264" transform="translate(-749 -2101)"><g id="prefix__Rectangle_5738" fill="#fff" stroke="#eecf09" stroke-width="2" data-name="Rectangle 5738" transform="translate(749 2101)"><rect width="72" height="72" stroke="none" rx="8"/><rect width="70" height="70" x="1" y="1" fill="none" rx="7"/></g><g id="prefix__Layer_1" data-name="Layer 1" transform="translate(772.485 2119.329)"><g id="prefix__Layer_1-2" data-name="Layer 1-2"><path id="prefix__Path_53120" d="M45.306 55.47H21.037a.6.6 0 01-.6-.59V35.507a.6.6 0 01.6-.6h24.27a.6.6 0 01.6.6V54.88a.6.6 0 01-.6.59zm-23.673-1.193h23.056V36.11H21.633z" class="prefix__cls-2" data-name="Path 53120" transform="translate(-20.44 -24.031)"/><path id="prefix__Path_53121" d="M43.41 30.946H27.034a.6.6 0 010-1.2h15.773V27.46a7.595 7.595 0 00-14.987-1.722.6.6 0 11-1.16-.271A8.815 8.815 0 0144.007 27.5v2.882a.6.6 0 01-.59.6z" class="prefix__cls-2" data-name="Path 53121" transform="translate(-22.389 -18.866)"/><path id="prefix__Path_53122" d="M52.526 42.658a.6.6 0 01-.6-.6V39.41a.6.6 0 011.193-.068v2.712a.6.6 0 01-.6.6z" class="prefix__cls-2" data-name="Path 53122" transform="translate(-35.606 -23.599)"/><path id="prefix__Path_53140" d="M52.526 42.658a.6.6 0 01-.6-.6V39.41a.6.6 0 011.193-.068v2.712a.6.6 0 01-.6.6z" class="prefix__cls-2" data-name="Path 53140" transform="translate(-43.988 -23.599)"/><path id="prefix__Path_53141" fill="none" stroke="#343434" stroke-linecap="round" stroke-linejoin="round" stroke-width="1.5" d="M7.101 23.373s1.061 3.77 5.914 3.77 5.635-3.77 5.635-3.77" data-name="Path 53141"/></g></g><g id="prefix__Group_4280" data-name="Group 4280" transform="rotate(-90 1462.203 708.904)" style="isolation:isolate"><g id="prefix__Group_3765" data-name="Group 3765" transform="translate(0 54.787)"><path id="prefix__Path_53060" fill="#ffea65" d="M5.173 10.848v-.055A6.315 6.315 0 000 4.9V0a11.173 11.173 0 0110.03 10.792v.055z" data-name="Path 53060"/></g><g id="prefix__Group_3767" class="prefix__cls-6" data-name="Group 3767" transform="translate(55.942 53.885)"><path id="prefix__Path_53062" fill="#5dc1bd" d="M6.634 7.667L0 3.833 6.634 0z" data-name="Path 53062"/></g><g id="prefix__Group_3768" class="prefix__cls-6" data-name="Group 3768" transform="translate(44.649)"><circle id="prefix__Ellipse_2700" cx="2.324" cy="2.324" r="2.324" fill="#00ace7" data-name="Ellipse 2700"/></g></g></g></svg>