<svg xmlns="http://www.w3.org/2000/svg" width="80" height="80"><defs><clipPath id="clip-path"><path id="Rectangle_6155" d="M0 0h80v80H0z" data-name="Rectangle 6155" transform="translate(97 456)" stroke="#707070" fill="#fff"/></clipPath><style>.cls-3{fill:#f9de4b}.cls-5{opacity:.6}.cls-9{fill:#343434}</style></defs><g id="Mask_Group_551" data-name="Mask Group 551" transform="translate(-97 -456)" clip-path="url(#clip-path)"><g id="Layer_2" data-name="Layer 2" transform="translate(97 456)"><g id="Layer_1" data-name="Layer 1"><g id="Layer_1-2" data-name="Layer 1-2"><rect id="Rectangle_6159" width="80" height="80" class="cls-3" data-name="Rectangle 6159" rx="4.12"/><rect id="Rectangle_6160" width="72.76" height="72.76" data-name="Rectangle 6160" rx="3.75" transform="translate(3.62 3.62)" fill="#fff"/><g id="Group_3801" class="cls-5" data-name="Group 3801"><path id="Path_4744" d="M3.72 58.49v8.81a11.44 11.44 0 0110.77 9.37h8.88A20.26 20.26 0 003.72 58.49z" data-name="Path 4744" fill="#54b2ac"/></g><g id="Group_3802" class="cls-5" data-name="Group 3802"><path id="Path_4745" d="M72.83 46.34l-5.78 3.34 5.78 3.34z" data-name="Path 4745" fill="#f0b744"/></g><g id="Group_3803" class="cls-5" data-name="Group 3803"><path id="Path_4746" d="M20.41 10.26l-5.78 3.33 5.78 3.34z" class="cls-3" data-name="Path 4746"/></g><g id="Group_3804" class="cls-5" data-name="Group 3804"><circle id="Ellipse_3091" cx="4.2" cy="4.2" r="4.2" data-name="Ellipse 3091" transform="translate(66.12 5.87)" fill="#59a9dd"/></g></g><path id="Path_4747" d="M61 61.9H18.7a4.53 4.53 0 01-4.52-4.51V32.58a4.52 4.52 0 014.52-4.51h31.22v1.76H18.7a2.75 2.75 0 00-2.7 2.75v24.81a2.75 2.75 0 002.75 2.75H61a2.75 2.75 0 002.74-2.75V37h1.76v20.39A4.52 4.52 0 0161 61.9z" class="cls-9" data-name="Path 4747"/><path id="Path_4748" d="M58.21 56.15h-9.09a2.65 2.65 0 01-2.64-2.64v-4.89A2.64 2.64 0 0149.12 46h9.09a2.64 2.64 0 012.64 2.64v4.89a2.64 2.64 0 01-2.64 2.62zm-9.09-8.41a.89.89 0 00-.88.88v4.89a.89.89 0 00.88.88h9.09a.88.88 0 00.88-.88v-4.89a.88.88 0 00-.88-.88z" class="cls-9" data-name="Path 4748"/><path id="Path_4749" d="M47.14 38.89H15.73a.88.88 0 110-1.76h31.41a.88.88 0 110 1.76z" class="cls-9" data-name="Path 4749"/><path id="Path_4750" d="M60.41 38.78a11.5 11.5 0 1111.5-11.5 11.5 11.5 0 01-11.5 11.5zm0-21.24a9.74 9.74 0 109.74 9.74 9.74 9.74 0 00-9.74-9.74z" class="cls-9" data-name="Path 4750"/><path id="Path_4751" d="M66.83 31.82a.59.59 0 01-.23 0l-7.95-2.16v-8.2a.88.88 0 111.76 0v6.85l6.65 1.82a.87.87 0 01.62 1.08.89.89 0 01-.85.61z" class="cls-9" data-name="Path 4751"/></g></g></g></svg>