<svg xmlns="http://www.w3.org/2000/svg" width="80" height="80"><defs><clipPath id="clip-path"><path id="Rectangle_6158" d="M0 0h80v80H0z" data-name="Rectangle 6158" transform="translate(748 456)" stroke="#707070" fill="#fff"/></clipPath><style>.cls-3{fill:#f9de4b}.cls-5{opacity:.6}.cls-9{fill:#343434}</style></defs><g id="Mask_Group_554" data-name="Mask Group 554" transform="translate(-748 -456)" clip-path="url(#clip-path)"><g id="Layer_2" data-name="Layer 2" transform="translate(748 456)"><g id="Layer_1" data-name="Layer 1"><g id="Layer_1-2" data-name="Layer 1-2"><rect id="Rectangle_6165" width="80" height="80" class="cls-3" data-name="Rectangle 6165" rx="4.12"/><rect id="Rectangle_6166" width="72.76" height="72.76" data-name="Rectangle 6166" rx="3.75" transform="translate(3.62 3.62)" fill="#fff"/><g id="Group_3813" class="cls-5" data-name="Group 3813"><path id="Path_4776" d="M76.28 21.61V12.8a11.44 11.44 0 01-10.77-9.38h-8.88a20.25 20.25 0 0019.65 18.19z" data-name="Path 4776" fill="#54b2ac"/></g><g id="Group_3814" class="cls-5" data-name="Group 3814"><path id="Path_4777" d="M68.92 66l-5.78 3.34 5.78 3.34z" data-name="Path 4777" fill="#f0b744"/></g><g id="Group_3815" class="cls-5" data-name="Group 3815"><path id="Path_4778" d="M41.63 7.42l-5.78 3.34 5.78 3.34z" class="cls-3" data-name="Path 4778"/></g><g id="Group_3816" class="cls-5" data-name="Group 3816"><circle id="Ellipse_3094" cx="4.2" cy="4.2" r="4.2" data-name="Ellipse 3094" transform="translate(6.75 63.38)" fill="#59a9dd"/></g></g><path id="Path_4779" d="M58.74 66.23h-39a5 5 0 01-5-5V31.45a5 5 0 015-5h39a5 5 0 015 5v29.74a5 5 0 01-5 5.04zm-39-38.05a3.27 3.27 0 00-3.27 3.27v29.74a3.26 3.26 0 003.27 3.27h39A3.26 3.26 0 0062 61.19V31.45a3.27 3.27 0 00-3.27-3.27z" class="cls-9" data-name="Path 4779"/><path id="Path_4780" d="M35.91 36.8H15.56a.88.88 0 110-1.76h20.35a.88.88 0 010 1.76z" class="cls-9" data-name="Path 4780"/><path id="Path_4781" d="M61.73 19.1H17.34v-1.76H57.9l-4.06-4.74 1.33-1.15z" class="cls-9" data-name="Path 4781"/><path id="Path_4782" d="M33.08 49.86a4 4 0 114-4 4 4 0 01-4 4zm0-6.2a2.22 2.22 0 102.21 2.22 2.22 2.22 0 00-2.21-2.22z" class="cls-9" data-name="Path 4782"/><path id="Path_4783" d="M43.08 49.86a4 4 0 114-4 4 4 0 01-4 4zm0-6.2a2.22 2.22 0 102.21 2.22 2.22 2.22 0 00-2.21-2.22z" class="cls-9" data-name="Path 4783"/><path id="Path_4784" d="M53.08 49.86a4 4 0 114-4 4 4 0 01-4 4zm0-6.2a2.22 2.22 0 102.21 2.22 2.22 2.22 0 00-2.21-2.22z" class="cls-9" data-name="Path 4784"/><path id="Path_4785" d="M23.08 59.86a4 4 0 114-4 4 4 0 01-4 4zm0-6.2a2.22 2.22 0 102.21 2.22 2.22 2.22 0 00-2.21-2.22z" class="cls-9" data-name="Path 4785"/><path id="Path_4786" d="M33.08 59.86a4 4 0 114-4 4 4 0 01-4 4zm0-6.2a2.22 2.22 0 102.21 2.22 2.22 2.22 0 00-2.21-2.22z" class="cls-9" data-name="Path 4786"/><path id="Path_4787" d="M43.08 59.86a4 4 0 114-4 4 4 0 01-4 4zm0-6.2a2.22 2.22 0 102.21 2.22 2.22 2.22 0 00-2.21-2.22z" class="cls-9" data-name="Path 4787"/><path id="Rectangle_6167" d="M0 0h1.76v4.42H0z" class="cls-9" data-name="Rectangle 6167" transform="translate(23.52 22.42)"/><path id="Rectangle_6168" d="M0 0h1.76v4.42H0z" class="cls-9" data-name="Rectangle 6168" transform="translate(53.52 22.42)"/></g></g></g></svg>